<?xml version="1.0" encoding="utf-8"?>

<!-- Uploaded to: SVG Repo, www.svgrepo.com, Generator: SVG Repo Mixer Tools -->
<svg fill="#000000" height="800px" width="800px" version="1.1" id="Icons" xmlns="http://www.w3.org/2000/svg" xmlns:xlink="http://www.w3.org/1999/xlink" 
	 viewBox="0 0 32 32" xml:space="preserve">
<path d="M26.2,8.5c-2.2-3.2-5.6-5.2-9.3-5.5c-0.3,0-0.6,0-0.9,0c-3.7,0-7.2,1.6-9.7,4.3c-2.5,2.7-3.6,6.4-3.2,10.1
	c0.7,6,5.5,10.8,11.5,11.4C15,29,15.5,29,16,29c2.6,0,5-0.7,7.2-2.2c0.5-0.3,0.6-0.9,0.3-1.4c-0.3-0.5-0.9-0.6-1.4-0.3
	c-2.2,1.4-4.7,2.1-7.3,1.8c-5.1-0.5-9.1-4.6-9.7-9.7C4.7,14.1,5.7,11,7.8,8.7c2.3-2.5,5.6-3.9,9-3.6c3.2,0.2,6,1.9,7.8,4.6
	c1.9,2.9,2.4,6.3,1.3,9.6l0,0.1c-0.3,1-1.3,1.7-2.4,1.7c-1.4,0-2.5-1.1-2.5-2.5V17v-2v-4c0-0.6-0.4-1-1-1s-1,0.4-1,1v0
	c-0.8-0.6-1.9-1-3-1c-2.8,0-5,2.2-5,5v2c0,2.8,2.2,5,5,5c1.4,0,2.6-0.6,3.5-1.4c0.7,1.4,2.2,2.4,4,2.4c1.9,0,3.6-1.2,4.3-3.1l0-0.1
	C29.1,16,28.5,11.9,26.2,8.5z M19,17c0,1.7-1.3,3-3,3s-3-1.3-3-3v-2c0-1.7,1.3-3,3-3s3,1.3,3,3V17z"/>
</svg>